<?xml version="1.0" encoding="utf-8"?>
<!-- Generator: Adobe Illustrator 18.1.1, SVG Export Plug-In . SVG Version: 6.00 Build 0)  -->
<svg version="1.2" baseProfile="tiny" id="Laag_1" xmlns="http://www.w3.org/2000/svg" xmlns:xlink="http://www.w3.org/1999/xlink"
	 x="0px" y="0px" viewBox="0 0 60 60" xml:space="preserve">
<g>
	<g>
		<g>
			<path fill="#FFFFFF" d="M48.8,44.8h-1.9v-0.9h1.9V44.8z M45,44.8H43v-0.9H45V44.8z M41.1,44.8h-1.9v-0.9h1.9V44.8z M37.2,44.8
				h-1.9v-0.9h1.9V44.8z M33.4,44.8h-1.9v-0.9h1.9V44.8z M29.5,44.8h-1.9v-0.9h1.9V44.8z M25.6,44.8h-1.9v-0.9h1.9V44.8z M21.8,44.8
				h-1.9v-0.9h1.9V44.8z M17.9,44.8H16v-0.9h1.9V44.8z M14,44.8h-1.9v-0.9H14V44.8z M10.2,44.8H9.7c-0.5,0-1,0-1.5-0.1l0.2-0.9
				c0.4,0.1,0.9,0.1,1.4,0.1h0.5V44.8z M50.8,44.8l0-0.9c0.6,0,1.2-0.1,1.8-0.2l0.2,0.9C52.1,44.8,51.5,44.8,50.8,44.8z M6.2,44.1
				c-0.6-0.3-1.2-0.6-1.8-1L5,42.4c0.5,0.4,1,0.7,1.6,0.9L6.2,44.1z M54.7,43.9l-0.4-0.8c0.5-0.3,1.1-0.6,1.5-1l0.6,0.7
				C55.9,43.2,55.3,43.6,54.7,43.9z M3,41.7c-0.4-0.5-0.8-1.1-1.1-1.7l0.8-0.4c0.3,0.5,0.6,1.1,1,1.5L3,41.7z M57.8,41.3L57,40.7
				c0.4-0.5,0.7-1,0.9-1.6l0.8,0.4C58.5,40.1,58.2,40.7,57.8,41.3z M1.2,38.1c-0.2-0.7-0.2-1.3-0.2-2l0.9,0c0,0.6,0.1,1.2,0.2,1.8
				L1.2,38.1z M59.4,37.5l-0.9-0.2c0.1-0.4,0.1-0.9,0.1-1.3v-0.5h0.9v0.5C59.5,36.6,59.5,37.1,59.4,37.5z M1.8,34.1H0.9v-1.9h0.9
				V34.1z M59.5,33.6h-0.9v-1.9h0.9V33.6z M1.8,30.3H0.9v-1.9h0.9V30.3z M59.5,29.7h-0.9v-1.9h0.9V29.7z M1.8,26.4H0.9v-1.9h0.9
				V26.4z M59.5,25.9h-0.9v-1.9l0.7,0l0.3,0L59.5,25.9z M1.9,22.6L1,22.5c0.1-0.7,0.3-1.3,0.6-2l0.9,0.4C2.2,21.4,2,22,1.9,22.6z
				 M58.4,22.1c-0.1-0.6-0.4-1.2-0.6-1.7l0.8-0.4c0.3,0.6,0.5,1.2,0.7,1.9L58.4,22.1z M3.4,19.3l-0.7-0.5c0.4-0.5,0.9-1,1.4-1.5
				L4.6,18C4.1,18.4,3.7,18.8,3.4,19.3z M56.7,18.9c-0.4-0.5-0.8-0.9-1.3-1.2l0.5-0.7c0.5,0.4,1,0.9,1.5,1.4L56.7,18.9z M6.1,16.9
				l-0.4-0.8c0.6-0.3,1.2-0.6,1.9-0.7l0.2,0.9C7.2,16.5,6.6,16.7,6.1,16.9z M53.8,16.7c-0.6-0.2-1.1-0.4-1.7-0.5l0.2-0.9
				c0.7,0.1,1.3,0.3,2,0.6L53.8,16.7z M50.2,16.1h-1.9v-0.9h1.9V16.1z M46.3,16.1h-1.9v-0.9h1.9V16.1z M42.5,16.1h-1.9v-0.9h1.9
				V16.1z M38.6,16.1h-1.9v-0.9h1.9V16.1z M34.7,16.1h-1.9v-0.9h1.9V16.1z M30.9,16.1h-1.9v-0.9h1.9V16.1z M27,16.1h-1.9v-0.9H27
				V16.1z M23.1,16.1h-1.9v-0.9h1.9V16.1z M19.3,16.1h-1.9v-0.9h1.9V16.1z M15.4,16.1h-1.9v-0.9h1.9V16.1z M11.5,16.1H9.7l-0.1-0.9
				l1.9,0V16.1z"/>
		</g>
	</g>
	<g>
		<path fill="#FFFFFF" d="M37.2,59.7H23.2c-4.2,0-7.7-3.4-7.7-7.7V7.9c0-4.2,3.4-7.7,7.7-7.7h13.9c4.2,0,7.7,3.4,7.7,7.7v44.1
			C44.8,56.3,41.4,59.7,37.2,59.7z M23.2,1.2c-3.7,0-6.8,3-6.8,6.8v44.1c0,3.7,3,6.8,6.8,6.8h13.9c3.7,0,6.8-3,6.8-6.8V7.9
			c0-3.7-3-6.8-6.8-6.8H23.2z"/>
	</g>
	<g>
		<g>
			<g>
				<path fill="#FFFFFF" d="M2.5,8.9L1.8,8.5C4.2,4,9,1.2,14,1.2v0.9C9,2.1,4.8,4.7,2.5,8.9z"/>
			</g>
			<g>
				<g>
					<path fill="#FFFFFF" d="M9.2,6.4C9.1,6.2,8.8,6.2,8.6,6.3L2.1,8.5L1.4,1.5C1.4,1.2,1.2,1,0.9,1c-0.3,0-0.4,0.3-0.4,0.5l0.8,7.8
						c0,0.2,0.1,0.3,0.3,0.4s0.3,0.1,0.4,0l7.1-2.6C9.2,7,9.2,7,9.3,6.9C9.3,6.8,9.3,6.6,9.2,6.4z"/>
				</g>
			</g>
		</g>
	</g>
	<g>
		<path fill="#FFFFFF" d="M30.2,56.1c-2.3,0-4.2-1.9-4.2-4.2s1.9-4.2,4.2-4.2s4.2,1.9,4.2,4.2S32.5,56.1,30.2,56.1z M30.2,48.5
			c-1.8,0-3.3,1.5-3.3,3.3c0,1.8,1.5,3.3,3.3,3.3c1.8,0,3.3-1.5,3.3-3.3C33.5,50,32,48.5,30.2,48.5z"/>
	</g>
	<g>
		<path fill="#FFFFFF" d="M50.3,33.8c-0.5-0.1-1.1-0.4-1.5-0.7l0.4-0.6c0.4,0.3,0.8,0.5,1.2,0.6L50.3,33.8z M52,33.8l-0.2-0.7
			c0.4-0.1,0.9-0.3,1.2-0.6l0.5,0.6C53,33.4,52.5,33.6,52,33.8z M47.7,31.8c-0.3-0.5-0.4-1-0.4-1.6l0.7,0c0,0.5,0.1,0.9,0.3,1.3
			L47.7,31.8z M54.5,31.7l-0.6-0.3c0.2-0.4,0.3-0.8,0.3-1.3c0-0.1,0-0.1,0-0.2l0.7,0c0,0.1,0,0.2,0,0.2
			C54.8,30.7,54.7,31.2,54.5,31.7z M48.3,28.9l-0.7-0.3c0.2-0.5,0.6-1,1-1.3l0.5,0.5C48.7,28.1,48.5,28.5,48.3,28.9z M53.7,28.6
			c-0.2-0.4-0.5-0.7-0.9-1l0.4-0.6c0.5,0.3,0.8,0.7,1.1,1.2L53.7,28.6z M50.3,27.2l-0.2-0.7c0.5-0.1,1.1-0.2,1.7-0.1l-0.1,0.7
			C51.2,27,50.7,27.1,50.3,27.2z"/>
	</g>
</g>
</svg>
